# xmcd CD database file
# Copyright (C) 1993-1998 Ti Kan
# 
# Track frame offsets:
#     150
#     14852
#     36037
#     53267
#     78312
#     88320
#     111817
#     125722
#     146042
#     161182
#     172672
# 
# Disc length: 2699 seconds
# 
# Revision: 1
# Processed by: cddbd v1.4b41PL1 Copyright (c) Steve Scherf et al.
# Submitted via: DiscPlay 4.0.4
# 
DISCID=8f0a890b
DTITLE=Markus Rill - Gunslinger's Tales
DYEAR=1900
DGENRE=
TTITLE0=A Girl Called Jo
TTITLE1=Jenny
TTITLE2=Unknown
TTITLE3=Billy's Song
TTITLE4=The Plan
TTITLE5=In The Family
TTITLE6=A Soldier's Farewell
TTITLE7=Gunslinger's Blues
TTITLE8=Hope I'll Get To Heaven
TTITLE9=Can't Get Over You
TTITLE10=Every Dog Will Have Its' Day
EXTD=
EXTT0=
EXTT1=
EXTT2=
EXTT3=
EXTT4=
EXTT5=
EXTT6=
EXTT7=
EXTT8=
EXTT9=
EXTT10=
PLAYORDER=
